<svg width="509" height="241" viewBox="0 0 509 241" fill="none" xmlns="http://www.w3.org/2000/svg">
<path d="M43 50C43 22.3858 65.3858 0 93 0H459C486.614 0 509 22.3858 509 50V148C509 175.614 486.614 198 459 198H276H93C65.3858 198 43 175.614 43 148V50Z" fill="#CEEFFF"/>
<path d="M259.236 87V71.16H271.204C271.791 71.16 272.326 71.3067 272.81 71.6C273.309 71.8933 273.705 72.2893 273.998 72.788C274.306 73.272 274.46 73.8147 274.46 74.416V77.386C274.46 77.5767 274.446 77.76 274.416 77.936C274.402 78.0973 274.365 78.2513 274.306 78.398C274.526 78.6767 274.71 78.9993 274.856 79.366C275.003 79.7327 275.076 80.0993 275.076 80.466V83.744C275.076 84.3307 274.922 84.8733 274.614 85.372C274.321 85.8707 273.925 86.2667 273.426 86.56C272.942 86.8533 272.4 87 271.798 87H259.236ZM262.646 83.568H271.622V80.664H262.646V83.568ZM262.646 77.232H271.006V74.592H262.646V77.232ZM276.925 87V71.16H280.291V87H276.925ZM282.224 87V71.16H296.854V74.592H285.678V77.364H294.676V80.796H285.678V83.568H296.854V87H282.224ZM299.024 87V71.16H302.544L311.41 81.72V71.16H314.864V87H311.344L302.434 76.396V87H299.024ZM326.041 87L316.867 71.16H320.827L327.471 82.666L334.115 71.16H338.053L328.879 87H326.041ZM339.437 87V71.16H354.067V74.592H342.891V77.364H351.889V80.796H342.891V83.568H354.067V87H339.437ZM356.237 87V71.16H359.757L368.623 81.72V71.16H372.077V87H368.557L359.647 76.396V87H356.237ZM373.992 87V71.16H377.358V87H373.992ZM379.291 87V71.16H391.853C392.454 71.16 392.997 71.3067 393.481 71.6C393.979 71.8933 394.375 72.2893 394.669 72.788C394.977 73.272 395.131 73.8147 395.131 74.416V83.744C395.131 84.3307 394.977 84.8733 394.669 85.372C394.375 85.8707 393.979 86.2667 393.481 86.56C392.997 86.8533 392.454 87 391.853 87H379.291ZM382.679 83.568H391.677V74.592H382.679V83.568ZM400.806 87C400.22 87 399.677 86.8533 399.178 86.56C398.68 86.2667 398.284 85.8707 397.99 85.372C397.697 84.8733 397.55 84.3307 397.55 83.744V74.416C397.55 73.8147 397.697 73.272 397.99 72.788C398.284 72.2893 398.68 71.8933 399.178 71.6C399.677 71.3067 400.22 71.16 400.806 71.16H410.134C410.721 71.16 411.256 71.3067 411.74 71.6C412.239 71.8933 412.635 72.2893 412.928 72.788C413.236 73.272 413.39 73.8147 413.39 74.416V83.744C413.39 84.3307 413.236 84.8733 412.928 85.372C412.635 85.8707 412.239 86.2667 411.74 86.56C411.256 86.8533 410.721 87 410.134 87H400.806ZM400.96 83.568H409.936V74.592H400.96V83.568ZM422.947 87V74.416C422.947 73.8147 423.094 73.272 423.387 72.788C423.68 72.2893 424.076 71.8933 424.575 71.6C425.074 71.3067 425.616 71.16 426.203 71.16H435.509C436.11 71.16 436.653 71.3067 437.137 71.6C437.636 71.8933 438.032 72.2893 438.325 72.788C438.633 73.272 438.787 73.8147 438.787 74.416V87H435.333V81.896H426.357V87H422.947ZM426.357 78.464H435.333V74.592H426.357V78.464ZM275.994 115V99.16H290.624V102.592H279.448V105.364H288.446V108.796H279.448V115H275.994ZM291.298 115V99.16H294.664V115H291.298ZM296.575 115V99.138H299.985V111.568H312.415V115H296.575ZM313.742 115V99.16H328.372V102.592H317.196V105.364H326.194V108.796H317.196V111.568H328.372V115H313.742ZM333.754 115C333.167 115 332.624 114.853 332.126 114.56C331.627 114.267 331.231 113.871 330.938 113.372C330.644 112.873 330.498 112.331 330.498 111.744V110.27H333.908V111.568H342.884V108.796H333.754C333.167 108.796 332.624 108.649 332.126 108.356C331.627 108.063 331.231 107.674 330.938 107.19C330.644 106.691 330.498 106.141 330.498 105.54V102.416C330.498 101.815 330.644 101.272 330.938 100.788C331.231 100.289 331.627 99.8933 332.126 99.6C332.624 99.3067 333.167 99.16 333.754 99.16H343.082C343.668 99.16 344.204 99.3067 344.688 99.6C345.186 99.8933 345.582 100.289 345.876 100.788C346.184 101.272 346.338 101.815 346.338 102.416V103.89H342.884V102.592H333.908V105.364H343.082C343.668 105.364 344.204 105.511 344.688 105.804C345.186 106.097 345.582 106.493 345.876 106.992C346.184 107.476 346.338 108.019 346.338 108.62V111.744C346.338 112.331 346.184 112.873 345.876 113.372C345.582 113.871 345.186 114.267 344.688 114.56C344.204 114.853 343.668 115 343.082 115H333.754ZM348.782 115V99.16H352.192V105.364H361.542V99.16H364.952V115H361.542V108.796H352.192V115H348.782ZM366.923 115V99.16H370.289V115H366.923ZM372.222 115V99.16H386.852V102.592H375.676V105.364H384.674V108.796H375.676V111.568H386.852V115H372.222ZM389.044 115V99.138H392.454V111.568H404.884V115H389.044ZM406.211 115V99.16H418.773C419.374 99.16 419.917 99.3067 420.401 99.6C420.899 99.8933 421.295 100.289 421.589 100.788C421.897 101.272 422.051 101.815 422.051 102.416V111.744C422.051 112.331 421.897 112.873 421.589 113.372C421.295 113.871 420.899 114.267 420.401 114.56C419.917 114.853 419.374 115 418.773 115H406.211ZM409.599 111.568H418.597V102.592H409.599V111.568Z" fill="#000172"/>
<path d="M163.201 23.5678C165.096 23.5868 166.705 23.7016 168.081 24.0551C169.437 24.4036 170.547 24.9795 171.465 25.9184C172.374 26.8485 173.149 28.195 173.753 30.1811C173.87 32.2035 173.421 33.1409 172.862 33.6156C172.245 34.1403 171.2 34.3707 169.553 34.3031C167.932 34.2367 166.008 33.9018 163.806 33.5648C161.638 33.2333 159.252 32.9096 156.839 32.9096C154.415 32.9096 152.022 33.2752 149.868 33.6566C147.672 34.0454 145.791 34.4357 144.235 34.5395C142.638 34.646 141.774 34.4132 141.331 33.9506C140.904 33.5046 140.561 32.5134 140.932 30.2367C141.406 28.6924 142.06 27.5483 142.874 26.684C143.697 25.8103 144.726 25.1767 146.005 24.7201C148.615 23.7883 152.151 23.6254 156.839 23.6254C159.252 23.6254 161.259 23.5483 163.201 23.5678Z" fill="white" stroke="#01025E" stroke-width="2"/>
<mask id="path-5-inside-1_6_54" fill="white">
<path d="M157.5 30C189.5 30 207 48.4187 207 71.752C208.799 83.5935 204.425 95.8841 192.37 104.044C196.496 105.175 196.438 110.506 195.5 122C195.5 138.016 175.5 163.5 158 162.5C135 164 119 132.516 119 116.5C119 110.013 119.492 105.91 122.436 104.287C110.952 97.1665 107.8 86.3124 108 71.752C108.389 43.4233 131.5 30 157.5 30Z"/>
</mask>
<path d="M157.5 30C189.5 30 207 48.4187 207 71.752C208.799 83.5935 204.425 95.8841 192.37 104.044C196.496 105.175 196.438 110.506 195.5 122C195.5 138.016 175.5 163.5 158 162.5C135 164 119 132.516 119 116.5C119 110.013 119.492 105.91 122.436 104.287C110.952 97.1665 107.8 86.3124 108 71.752C108.389 43.4233 131.5 30 157.5 30Z" fill="white"/>
<path d="M157.5 30L157.5 28L157.5 28L157.5 30ZM207 71.752H205V71.903L205.023 72.0523L207 71.752ZM192.37 104.044L191.249 102.388L187.65 104.824L191.842 105.973L192.37 104.044ZM195.5 122L193.507 121.837L193.5 121.919V122H195.5ZM158 162.5L158.114 160.503L157.992 160.496L157.87 160.504L158 162.5ZM119 116.5L117 116.5L117 116.5L119 116.5ZM122.436 104.287L123.401 106.039L126.394 104.389L123.49 102.587L122.436 104.287ZM108 71.752L106 71.7245L106 71.7245L108 71.752ZM157.5 30V32C173.119 32 184.982 36.4906 192.914 43.614C200.833 50.7262 205 60.6068 205 71.752H207H209C209 59.5639 204.417 48.5686 195.586 40.638C186.768 32.7188 173.881 28 157.5 28V30ZM207 71.752L205.023 72.0523C206.71 83.1612 202.64 94.6771 191.249 102.388L192.37 104.044L193.491 105.7C206.21 97.0911 210.887 84.0259 208.977 71.4516L207 71.752ZM192.37 104.044L191.842 105.973C192.436 106.136 192.791 106.406 193.069 106.821C193.389 107.301 193.679 108.091 193.851 109.398C194.202 112.054 193.981 116.031 193.507 121.837L195.5 122L197.493 122.163C197.958 116.476 198.235 112.039 197.817 108.874C197.605 107.27 197.195 105.797 196.395 104.599C195.552 103.338 194.367 102.518 192.899 102.115L192.37 104.044ZM195.5 122H193.5C193.5 129.33 188.832 139.253 181.805 147.317C174.751 155.412 165.926 160.95 158.114 160.503L158 162.5L157.886 164.497C167.574 165.05 177.499 158.346 184.82 149.945C192.168 141.514 197.5 130.686 197.5 122H195.5ZM158 162.5L157.87 160.504C147.386 161.188 138.212 154.358 131.506 144.911C124.81 135.477 121 123.998 121 116.5L119 116.5L117 116.5C117 125.018 121.191 137.289 128.244 147.226C135.288 157.15 145.614 165.312 158.13 164.496L158 162.5ZM119 116.5H121C121 113.257 121.129 110.823 121.558 109.038C121.977 107.3 122.605 106.477 123.401 106.039L122.436 104.287L121.47 102.536C119.322 103.72 118.233 105.761 117.669 108.102C117.117 110.395 117 113.256 117 116.5H119ZM122.436 104.287L123.49 102.587C118.1 99.2452 114.726 95.0799 112.69 90.0582C110.633 84.9844 109.902 78.932 110 71.7794L108 71.752L106 71.7245C105.899 79.1324 106.643 85.7873 108.983 91.5608C111.344 97.3864 115.288 102.208 121.382 105.987L122.436 104.287ZM108 71.752L110 71.7794C110.186 58.2224 115.776 48.3648 124.356 41.8452C132.998 35.2781 144.815 32 157.5 32L157.5 30L157.5 28C144.185 28 131.446 31.4335 121.936 38.6603C112.363 45.9344 106.203 56.9529 106 71.7245L108 71.752Z" fill="#01025E" mask="url(#path-5-inside-1_6_54)"/>
<path d="M157.5 47C180.703 47 194.679 55.8542 199.022 70.2266C200.001 76.4078 199.912 84.4361 194.719 89.8047C189.535 95.1628 178.879 98.2547 157.718 93.5244L157.492 93.4736L157.268 93.5273C135.366 98.7537 124.595 95.2817 119.531 89.6445C114.421 83.9557 114.713 75.631 115.974 70.2275C119.315 55.9093 134.207 47 157.5 47Z" fill="#010173" stroke="#040466" stroke-width="2"/>
<path d="M123.01 129.473C116.424 139.957 108.898 145.052 103.799 141.848C98.6991 138.644 99.904 127.549 106.49 117.065C120.125 95.3594 120.895 101.073 123.585 103.207C118.797 112 121.957 125.105 123.01 129.473Z" fill="white"/>
<path d="M123.01 129.473C116.424 139.957 108.898 145.052 103.799 141.848C98.6991 138.644 99.904 127.549 106.49 117.065C120.125 95.3594 120.895 101.073 123.585 103.207C118.797 112 121.957 125.105 123.01 129.473Z" fill="white"/>
<path d="M123.01 129.473C116.424 139.957 108.898 145.052 103.799 141.848C98.6991 138.644 99.904 127.549 106.49 117.065C120.125 95.3594 120.895 101.073 123.585 103.207C118.797 112 121.957 125.105 123.01 129.473Z" stroke="#01025E" stroke-width="4"/>
<path d="M189.667 104.407C197.858 95.7977 212.917 85.7417 217.888 90.472C222.86 95.2022 220.249 106.016 212.058 114.625C195.098 132.45 192.833 130.093 193.5 125C193.5 120.5 195.69 112.308 189.667 104.407Z" fill="white"/>
<path d="M189.667 104.407C197.858 95.7977 212.917 85.7417 217.888 90.472C222.86 95.2022 220.249 106.016 212.058 114.625C195.098 132.45 192.833 130.093 193.5 125C193.5 120.5 195.69 112.308 189.667 104.407Z" fill="white"/>
<path d="M189.667 104.407C197.858 95.7977 212.917 85.7417 217.888 90.472C222.86 95.2022 220.249 106.016 212.058 114.625C195.098 132.45 192.833 130.093 193.5 125C193.5 120.5 195.69 112.308 189.667 104.407Z" stroke="#010466" stroke-width="4"/>
<path d="M106.03 60C107.965 60.0055 108.764 60.5436 109.134 61.124C109.562 61.7953 109.661 62.8698 109.447 64.4268C109.237 65.9567 108.773 67.6748 108.332 69.5264C107.903 71.3299 107.5 73.2452 107.5 75C107.5 84.2569 110.071 89.681 110.991 92.3652C111.194 92.958 111.268 93.2994 111.281 93.4902C111.055 93.5444 110.607 93.573 109.779 93.5039C108.918 93.432 107.774 93.2699 106.265 93.0293C102.537 91.6134 100.819 89.796 99.9443 87.2754C99.0124 84.5891 99 81.0382 99 76C99 70.9589 99.013 67.0326 99.9473 64.2812C100.401 62.9465 101.051 61.9601 101.974 61.2705C102.896 60.5817 104.182 60.1199 106.03 60Z" fill="white" stroke="#01025E" stroke-width="2"/>
<path d="M100 81.5L101.285 82.5L102.785 84L103.785 84.5L105.285 85L106.785 85L107.5 85L107.854 86L108 87L108.5 88L108.5 88.5L109 89.5L109.285 90.8148L110 92.5L109.285 92.5L109 92.5L107.854 92.2937L106.5 92L105.285 91.5L104.285 91L103.285 90.3597L102.285 89.5L101.5 88.5L101 87.5L100.5 86L100.285 85L100.285 83.7731L100 82.5L100 81.5Z" fill="#A9A8D0"/>
<path d="M209.257 60C207.322 60.0055 206.523 60.5436 206.153 61.124C205.725 61.7953 205.626 62.8698 205.84 64.4268C206.05 65.9567 206.514 67.6748 206.955 69.5264C207.384 71.3299 207.787 73.2452 207.787 75C207.787 84.3057 204.484 90.1331 203.22 93.0068C202.985 93.5391 202.866 93.8829 202.813 94.0977C203.131 94.1255 203.694 94.0956 204.632 93.9443C205.696 93.7727 207.116 93.4694 208.99 93.041C212.74 91.6234 214.466 89.8032 215.343 87.2754C216.275 84.5891 216.287 81.0382 216.287 76C216.287 70.9589 216.274 67.0326 215.34 64.2812C214.886 62.9465 214.236 61.9601 213.313 61.2705C212.391 60.5817 211.105 60.1199 209.257 60Z" fill="white" stroke="#01025E" stroke-width="2"/>
<path d="M215.294 83.993L213.848 84.7411L212.099 85.9416L211.024 86.2503L209.458 86.4676L207.983 86.1933L207.281 86.0626L206.75 86.981L206.424 87.9375L205.749 88.8292L205.658 89.3207L204.983 90.2124L204.462 91.4529L203.452 92.979L204.154 93.1097L204.435 93.1619L205.599 93.1686L206.984 93.1274L208.27 92.858L209.344 92.5492L210.444 92.1026L211.585 91.4403L212.54 90.6007L213.214 89.709L213.98 88.3257L214.374 87.3818L214.598 86.1756L215.112 84.9762L215.294 83.993Z" fill="#A9A8D0"/>
<path d="M206.929 37.3867L208.636 39.5205L210.033 42.7822L210.507 45.625L211.853 58.6318L209.542 57.9717L209.304 58.0195L206.804 58.5195L206.61 58.5586L206.445 58.668L206.034 58.9414L205.432 57.1338L205.41 57.0859L203 51.7832V44.5303L203.47 37.9434L204.012 37.4023L205.5 37.0303L206.929 37.3867Z" fill="#00CCF9" stroke="#020570" stroke-width="2"/>
<path d="M108.414 37L106.256 39.1582L104.937 40.917L104.488 43.1602L103.995 47.1025L103.497 54.0713L103.496 54.083L103.117 58.6406L105.226 58.0381L105.458 57.9717L105.696 58.0195L108.196 58.5195L108.39 58.5586L108.555 58.668L108.966 58.9414L109.568 57.1338L109.59 57.0859L112 51.7832V44.5303L111.53 37.9434L110.988 37.4023L109.379 37H108.414Z" fill="#1BC4F5" stroke="#020570" stroke-width="2"/>
<path d="M156.591 156.775C190.491 154.771 190.295 107.493 193.286 111.492C197.771 129.992 179.009 162.066 156.591 161.275C134.172 160.484 120.254 132.644 121 111.5C123.992 105 119.203 149.279 156.591 156.775Z" fill="#A9A8D0"/>
<path opacity="0.5" d="M157.824 49.8947C119.335 49.9628 116.5 74.5 116.5 75.5C115.5 62.5 132.238 46.6086 157.734 47.6291C183.23 48.6495 198.5 60.5 198.5 75.5C195 74 200.468 54.7062 157.824 49.8947Z" fill="#A9A8D0"/>
<path d="M124.07 133.507L137.511 129.992L157.923 128.47L181.018 129.945L192.823 132.432" stroke="#01025E" stroke-width="2"/>
<path d="M147.545 119H166.61C167.485 119 168.358 119.067 169.222 119.2L172.129 119.646C173.395 119.841 174.581 120.387 175.554 121.221L175.888 121.507C176.692 122.196 177.276 123.107 177.567 124.126C177.828 125.038 177.844 126.002 177.614 126.922L176.66 130.738C176.262 132.332 175.669 133.872 174.896 135.321L174.186 136.651C172.872 139.114 171.139 141.329 169.064 143.196L168.408 143.787C167.733 144.395 167.007 144.947 166.24 145.435C163.607 147.11 160.551 148 157.43 148H157.141C154.261 148 151.411 147.278 148.874 145.912C147.373 145.104 145.991 144.077 144.786 142.872L144.133 142.219C142.905 140.991 141.814 139.631 140.882 138.166L139.889 136.605C139.231 135.572 138.683 134.473 138.253 133.326C137.74 131.958 137.399 130.531 137.237 129.078L137.102 127.857C137.038 127.284 137.034 126.705 137.092 126.131L137.172 125.335C137.35 123.552 138.267 121.924 139.701 120.849C140.497 120.252 141.42 119.849 142.398 119.671L144.659 119.261C145.611 119.088 146.577 119 147.545 119Z" fill="#01D1FF" stroke="#01025E" stroke-width="2"/>
<path d="M156.483 142C174.041 141.199 175.44 123.452 177 125.236C177 133.814 168.1 147.847 156.483 147.437C144.866 147.027 137.582 134.626 137.913 125.236C139.446 122.357 137.092 138.573 156.483 142Z" fill="#0384CF"/>
<g filter="url(#filter0_f_6_54)">
<circle cx="176" cy="74" r="15" fill="#0237A1"/>
</g>
<g filter="url(#filter1_d_6_54)">
<path d="M185 77C185 79.1395 182.036 79.0775 177.702 75.829C176.421 74.8685 174.623 74.9161 173.383 75.9291C168.346 80.0438 166 78.3264 166 77C166 74.5147 170.529 70 175.5 70C180.471 70 185 74.5147 185 77Z" fill="#02E4FC"/>
</g>
<g filter="url(#filter2_f_6_54)">
<circle cx="176" cy="74" r="10" fill="#0588CE" fill-opacity="0.53"/>
</g>
<g filter="url(#filter3_f_6_54)">
<circle cx="139" cy="74" r="15" fill="#0237A1"/>
</g>
<g filter="url(#filter4_f_6_54)">
<circle cx="139" cy="74" r="10" fill="#0588CE" fill-opacity="0.53"/>
</g>
<g filter="url(#filter5_d_6_54)">
<path d="M148.5 77C148.5 79.1395 145.536 79.0775 141.202 75.829C139.921 74.8685 138.123 74.9161 136.883 75.9291C131.846 80.0438 129.5 78.3264 129.5 77C129.5 74.5147 134.029 70 139 70C143.971 70 148.5 74.5147 148.5 77Z" fill="#02E4FC"/>
</g>
<g filter="url(#filter6_f_6_54)">
<ellipse cx="157" cy="182" rx="30" ry="5" fill="#A2BFE1"/>
</g>
<path d="M103.5 138.5L106.149 137.906L111.649 133.906L116.649 128.406L119.5 122L120 125.5L120.5 127.5L121 129L119 132L117.5 133.906L114.5 137L112 139L110.5 140L109 140.5L108.114 140.714L107.048 140.714L106.149 140.714L105.5 140.5L104.5 140L104 139.5L103.5 138.5Z" fill="#A9A8D0"/>
<path d="M206.199 38.2585L206.199 41.8067L206.043 45.8049L205.975 50.3043L206.199 52.7753L206.621 53.2753L207.121 53.7753L207.621 54.2753L208.121 54.7753L208.621 54.7753L209.621 54.7753L210.621 55.7753L210.877 57.2753L209.621 57.0246L208.274 57.2753L206.621 57.5L206.5 57L205.975 56L205.5 55L205 54L204.788 53.2753L204.5 53L204.031 52L204.031 50.7753L204 49.5L204 46.5L204 44.5L204 44L204.125 42.5L204.125 41L204.4 39.5L204.4 38.5L204.668 38.2585L205.5 38L206.199 38.2585Z" fill="#0487CB"/>
<path d="M214 109L204.324 115.125L203.013 115.625L201.365 115.625L199.618 115.625L198.098 115.125L195.714 114L195.714 115.125L196 118L196 119L195.714 121.287L195.5 123.5L195.5 125L195.365 126.625L197.5 125.5L199.365 124.125L200.865 122.625L201.865 121.935L203 121L203.5 120.5L204 120L204.5 119.5L205 119L205.865 118.125L208 116L209 115L211 113L213 110.5L214 109Z" fill="#A9A8D0"/>
<path d="M108.922 37.9727L108.922 42.0315L109.078 46.0296L109.145 50.5291L108.922 53L108.5 53.5L108 54L107.5 54.5L107 55L106.5 55L105.5 55L104.5 56L104.254 57.2494L105.5 57L106.901 57.2494L108.5 57.5L108.5 57L109.078 56.0064L109.5 55L110 54L110.181 53.2674L110.5 52.5L111.089 51.5L111.089 51L111.041 50.0008L110.996 47.0011L110.996 44L110.844 42.0315L110.721 39.9728L110.721 38.2901L109.5 38.0001L108.922 37.9727Z" fill="#0487CB"/>
<defs>
<filter id="filter0_f_6_54" x="157" y="55" width="38" height="38" filterUnits="userSpaceOnUse" color-interpolation-filters="sRGB">
<feFlood flood-opacity="0" result="BackgroundImageFix"/>
<feBlend mode="normal" in="SourceGraphic" in2="BackgroundImageFix" result="shape"/>
<feGaussianBlur stdDeviation="2" result="effect1_foregroundBlur_6_54"/>
</filter>
<filter id="filter1_d_6_54" x="162" y="70" width="27" height="16.512" filterUnits="userSpaceOnUse" color-interpolation-filters="sRGB">
<feFlood flood-opacity="0" result="BackgroundImageFix"/>
<feColorMatrix in="SourceAlpha" type="matrix" values="0 0 0 0 0 0 0 0 0 0 0 0 0 0 0 0 0 0 127 0" result="hardAlpha"/>
<feOffset dy="4"/>
<feGaussianBlur stdDeviation="2"/>
<feComposite in2="hardAlpha" operator="out"/>
<feColorMatrix type="matrix" values="0 0 0 0 0.0156863 0 0 0 0 0.235294 0 0 0 0 0.647059 0 0 0 1 0"/>
<feBlend mode="normal" in2="BackgroundImageFix" result="effect1_dropShadow_6_54"/>
<feBlend mode="normal" in="SourceGraphic" in2="effect1_dropShadow_6_54" result="shape"/>
</filter>
<filter id="filter2_f_6_54" x="162" y="60" width="28" height="28" filterUnits="userSpaceOnUse" color-interpolation-filters="sRGB">
<feFlood flood-opacity="0" result="BackgroundImageFix"/>
<feBlend mode="normal" in="SourceGraphic" in2="BackgroundImageFix" result="shape"/>
<feGaussianBlur stdDeviation="2" result="effect1_foregroundBlur_6_54"/>
</filter>
<filter id="filter3_f_6_54" x="120" y="55" width="38" height="38" filterUnits="userSpaceOnUse" color-interpolation-filters="sRGB">
<feFlood flood-opacity="0" result="BackgroundImageFix"/>
<feBlend mode="normal" in="SourceGraphic" in2="BackgroundImageFix" result="shape"/>
<feGaussianBlur stdDeviation="2" result="effect1_foregroundBlur_6_54"/>
</filter>
<filter id="filter4_f_6_54" x="125" y="60" width="28" height="28" filterUnits="userSpaceOnUse" color-interpolation-filters="sRGB">
<feFlood flood-opacity="0" result="BackgroundImageFix"/>
<feBlend mode="normal" in="SourceGraphic" in2="BackgroundImageFix" result="shape"/>
<feGaussianBlur stdDeviation="2" result="effect1_foregroundBlur_6_54"/>
</filter>
<filter id="filter5_d_6_54" x="125.5" y="70" width="27" height="16.512" filterUnits="userSpaceOnUse" color-interpolation-filters="sRGB">
<feFlood flood-opacity="0" result="BackgroundImageFix"/>
<feColorMatrix in="SourceAlpha" type="matrix" values="0 0 0 0 0 0 0 0 0 0 0 0 0 0 0 0 0 0 127 0" result="hardAlpha"/>
<feOffset dy="4"/>
<feGaussianBlur stdDeviation="2"/>
<feComposite in2="hardAlpha" operator="out"/>
<feColorMatrix type="matrix" values="0 0 0 0 0.0156863 0 0 0 0 0.235294 0 0 0 0 0.647059 0 0 0 1 0"/>
<feBlend mode="normal" in2="BackgroundImageFix" result="effect1_dropShadow_6_54"/>
<feBlend mode="normal" in="SourceGraphic" in2="effect1_dropShadow_6_54" result="shape"/>
</filter>
<filter id="filter6_f_6_54" x="126" y="176" width="62" height="12" filterUnits="userSpaceOnUse" color-interpolation-filters="sRGB">
<feFlood flood-opacity="0" result="BackgroundImageFix"/>
<feBlend mode="normal" in="SourceGraphic" in2="BackgroundImageFix" result="shape"/>
<feGaussianBlur stdDeviation="0.5" result="effect1_foregroundBlur_6_54"/>
</filter>
</defs>
</svg>
