<svg width="130" height="165" viewBox="0 0 130 165" fill="none" xmlns="http://www.w3.org/2000/svg">
<path d="M76.939 8.00534C77.5298 16.924 68.3963 11.9094 59.1149 11.9094C49.8334 11.9094 40.7203 17.5508 42.3094 8.00534C44.3464 1.24057 49.8334 0.625589 59.1149 0.625589C68.3963 0.625589 74.3927 -0.604377 76.939 8.00534Z" fill="white"/>
<path d="M59.7725 8C91.6247 8 109.044 26.4187 109.044 49.752C110.834 61.5936 106.481 73.8841 94.4814 82.0439C98.5887 83.1747 98.5306 88.5063 97.5967 100C97.5967 116.016 77.6896 141.5 60.2705 140.5C37.3768 142 21.4502 110.516 21.4502 94.5C21.4502 88.0134 21.9399 83.9099 24.8701 82.2871C13.4395 75.1665 10.302 64.3125 10.501 49.752C10.8882 21.4233 33.8926 8.00004 59.7725 8Z" fill="white"/>
<path d="M102.076 48C104.067 60.5 102.076 82 59.7725 72.5C15.9757 83 14.914 59 17.4688 48C20.9526 33 36.4088 24 59.7725 24C83.1362 24 97.597 33 102.076 48Z" fill="#010173"/>
<path d="M26.043 83.2203C19.2054 72.9199 11.5786 68.0323 6.59135 71.3737C1.60415 74.7151 3.10419 85.774 9.94179 96.0743C24.0981 117.4 24.709 111.667 27.3274 109.461C22.3254 100.801 25.1136 87.6155 26.043 83.2203Z" fill="white"/>
<path d="M26.043 83.2203C19.2054 72.9199 11.5786 68.0323 6.59135 71.3737C1.60415 74.7151 3.10419 85.774 9.94179 96.0743C24.0981 117.4 24.709 111.667 27.3274 109.461C22.3254 100.801 25.1136 87.6155 26.043 83.2203Z" fill="white"/>
<path d="M97.4771 84.7858C108.49 80.4481 126.305 77.7029 128.798 84.0917C131.292 90.4805 124.385 99.1761 113.373 103.514C90.5727 112.495 89.5214 109.401 92.2667 105.068C94.1608 100.99 99.5845 94.4925 97.4771 84.7858Z" fill="white"/>
<path d="M97.4771 84.7858C108.49 80.4481 126.305 77.7029 128.798 84.0917C131.292 90.4805 124.385 99.1761 113.373 103.514C90.5727 112.495 89.5214 109.401 92.2667 105.068C94.1608 100.99 99.5845 94.4925 97.4771 84.7858Z" fill="white"/>
<path d="M10.9989 53C10.9989 71.1108 20.9527 74 8.51041 72C0.547363 69 0.547363 63.9411 0.547363 54C0.547363 44.0589 0.547363 37.5 8.51041 37C16.9712 37 10.9989 46.5 10.9989 53Z" fill="white"/>
<path d="M3.00002 59.5L4.28545 60.5L5.78545 62L6.78545 62.5L8.28545 63H10.5L10.854 64L11 65L11.5 66V66.5L12 67.5L12.2855 68.8148L13 70.5H12L10.854 70.2937L9.50002 70L8.28545 69.5L7.28545 69L6.28545 68.3597L5.28545 67.5L4.50002 66.5L4.00002 65.5L3.50002 64L3.28545 63V61.7731L3.00002 60.5V59.5Z" fill="#A9A8D0"/>
<path d="M108.832 53C108.832 71.1108 96.104 75.5 111.32 72C119.283 69 119.283 63.9411 119.283 54C119.283 44.0589 119.283 37.5 111.32 37C102.86 37 108.832 46.5 108.832 53Z" fill="white"/>
<path d="M118.294 61.9931L116.848 62.7412L115.099 63.9416L114.024 64.2503L112.458 64.4676L110.281 64.0626L109.75 64.9811L109.424 65.9375L108.749 66.8292L108.658 67.3208L107.983 68.2125L107.462 69.4529L106.452 70.979L107.435 71.1619L108.599 71.1687L109.984 71.1275L111.27 70.858L112.344 70.5493L113.444 70.1027L114.585 69.4403L115.54 68.6008L116.214 67.7091L116.98 66.3258L117.374 65.3819L117.598 64.1756L118.112 62.9762L118.294 61.9931Z" fill="#A9A8D0"/>
<path d="M104.565 15.5L105.56 14.5L107.551 14L109.542 14.5L111.532 17L113.025 20.5L113.523 23.5L115.016 38L111.532 37L109.044 37.5L107.551 38.5L106.555 35.5L104.067 30V22.5L104.565 15.5Z" fill="#00CCF9"/>
<path d="M14.9804 15.5L13.985 14.5L11.9942 14H10.5012L8.01272 16.5L6.51965 18.5L6.02196 21L5.52427 25L5.02658 32L4.52889 38L8.01272 37L10.5012 37.5L11.9942 38.5L12.9896 35.5L15.4781 30V22.5L14.9804 15.5Z" fill="#1BC4F5"/>
<path d="M59.5912 134.775C93.4912 132.771 93.2954 85.4927 96.2861 89.4924C100.771 107.992 82.0095 140.066 59.5908 139.275C37.1721 138.484 23.2538 110.644 24 89.5C26.9919 82.9997 22.2027 127.279 59.5912 134.775Z" fill="#A9A8D0"/>
<path d="M60.8237 27.8947C22.3347 27.9628 19.5001 52.5 19.5001 53.5C18.5001 40.5 35.2384 24.6086 60.7342 25.6291C86.23 26.6495 101.5 38.5 101.5 53.5C98.0001 52 103.468 32.7062 60.8237 27.8947Z" fill="#A9A8D0"/>
<path d="M38.549 103.22C38.7533 101.168 39.8066 99.2939 41.4541 98.0526C42.3727 97.3604 43.4403 96.8924 44.5717 96.6857L46.811 96.2767C47.8187 96.0926 48.841 96 49.8654 96H68.8387C69.7609 96 70.6817 96.0707 71.5931 96.2116L74.4753 96.6571C75.9253 96.8812 77.2834 97.5075 78.3952 98.4649L78.7179 98.7428C79.6702 99.5629 80.3611 100.644 80.7049 101.853C81.0118 102.932 81.0307 104.073 80.7598 105.161L79.81 108.978C79.3932 110.653 78.7733 112.271 77.9641 113.795L77.2593 115.123C75.8975 117.688 74.0991 119.996 71.9448 121.944L71.2932 122.533C70.5817 123.177 69.8178 123.76 69.0096 124.276C66.2277 126.055 62.9949 127 59.6931 127H59.415C56.3832 127 53.38 126.234 50.7134 124.792C49.1376 123.939 47.6835 122.855 46.4196 121.585L45.7605 120.923C44.4883 119.645 43.3596 118.231 42.3946 116.708L41.4043 115.144C40.7117 114.051 40.1345 112.889 39.6819 111.676C39.1424 110.231 38.7838 108.724 38.6142 107.191L38.4787 105.966C38.4077 105.324 38.4041 104.676 38.4681 104.033L38.549 103.22Z" fill="#01D1FF"/>
<path d="M59.483 120C77.0413 119.199 78.4401 101.452 80 103.236C80 111.815 71.1002 125.847 59.483 125.437C47.8657 125.027 40.5819 112.626 40.9133 103.236C42.4464 100.357 40.0923 116.573 59.483 120Z" fill="#0384CF"/>
<path d="M93.1178 52C93.1178 60.2843 86.4331 67 78.1871 67C69.9411 67 63.2564 60.2843 63.2564 52C63.2564 43.7157 69.9411 37 78.1871 37C86.4331 37 93.1178 43.7157 93.1178 52Z" fill="#0237A1"/>
<path d="M87.1455 55C87.1455 57.1367 84.2026 57.0777 79.898 53.8417C78.6137 52.8762 76.8097 52.9238 75.5667 53.9419C70.5634 58.0402 68.2333 56.325 68.2333 55C68.2333 52.5147 72.7418 48 77.6894 48C82.637 48 87.1455 52.5147 87.1455 55Z" fill="#02E4FC"/>
<path d="M88.1409 52C88.1409 57.5229 83.6844 62 78.1871 62C72.6898 62 68.2333 57.5229 68.2333 52C68.2333 46.4772 72.6898 42 78.1871 42C83.6844 42 88.1409 46.4772 88.1409 52Z" fill="#0588CE" fill-opacity="0.53"/>
<path d="M56.2887 52C56.2887 60.2843 49.604 67 41.358 67C33.112 67 26.4273 60.2843 26.4273 52C26.4273 43.7157 33.112 37 41.358 37C49.604 37 56.2887 43.7157 56.2887 52Z" fill="#0237A1"/>
<path d="M51.3118 52C51.3118 57.5229 46.8553 62 41.358 62C35.8607 62 31.4042 57.5229 31.4042 52C31.4042 46.4772 35.8607 42 41.358 42C46.8553 42 51.3118 46.4772 51.3118 52Z" fill="#0588CE" fill-opacity="0.53"/>
<path d="M50.8141 55C50.8141 57.1367 47.8711 57.0777 43.5666 53.8417C42.2823 52.8762 40.4783 52.9238 39.2353 53.9419C34.232 58.0402 31.9019 56.325 31.9019 55C31.9019 52.5147 36.4104 48 41.358 48C46.3056 48 50.8141 52.5147 50.8141 55Z" fill="#02E4FC"/>
<path d="M90 160C90 162.761 76.5686 165 60 165C43.4315 165 30 162.761 30 160C30 157.239 43.4315 155 60 155C76.5686 155 90 157.239 90 160Z" fill="#A2BFE1"/>
<path d="M24.1968 89.3764L23.0017 91.8141L22.6779 98.6071L23.8368 105.949L27.0477 112.182L24.0053 110.381L22.1326 109.519L20.6499 108.97L19.5625 105.533L19.0152 103.17L18.4804 98.8933L18.4858 95.6918L18.645 93.8961L19.1941 92.4133L19.582 91.5889L20.8122 90.0564L21.3852 89.684L22.4011 89.2172L23.104 89.1402L24.1968 89.3764Z" fill="#A9A8D0"/>
<path d="M109.199 16.2585L109.199 19.8067L109.043 23.8049L108.975 28.3043L109.199 30.7753L109.621 31.2753L111.121 32.7753H112.621L113.621 33.7753L113.877 35.2753L112.621 35.0247L111.274 35.2753L109.621 35.5L109.5 35L108.975 34L108.5 33L108 32L107.788 31.2753L107.5 31L107.031 30V28.7753L107 27.5L107 22L107.125 20.5V19L107.4 17.5L107.4 16.5L107.668 16.2585L108.5 16L109.199 16.2585Z" fill="#0487CB"/>
<path d="M118.596 98.8156L107.219 100.117L105.821 99.9958L102.764 98.5175L101.614 97.4055L99.9578 95.355L99.4679 96.3677L98.4736 99.0804L98.0382 99.9807L96.7849 101.915L95.6287 103.814L94.9756 105.164L94.147 106.569L96.5584 106.485L98.8364 106.06L100.84 105.362L102.041 105.177L103.469 104.829L106.14 103.899L107.3 103.488L110.147 102.505L114.154 101.11L117.043 99.7306L118.596 98.8156Z" fill="#A9A8D0"/>
<path d="M11.9217 15.9727L11.9217 20.0315L12.0781 24.0296L12.1452 28.5291L11.9217 31L11.5 31.5L10 33H8.50002L7.50002 34L7.25399 35.2494L8.50002 35L9.90081 35.2494L11.5 35.5V35L12.0781 34.0064L12.5 33L13 32L13.1806 31.2674L13.5 30.5L14.0895 29.5L14.0895 29L14.0408 28.0008L13.9961 25.0011V22L13.8437 20.0315L13.7208 17.9728L13.7209 16.2901L12.4999 16.0001L11.9217 15.9727Z" fill="#0487CB"/>
</svg>
