<svg width="417" height="297" viewBox="0 0 417 297" fill="none" xmlns="http://www.w3.org/2000/svg">
<path d="M0 50C0 22.3858 22.3858 0 50 0H367C394.614 0 417 22.3858 417 50V247C417 274.614 394.614 297 367 297H208.5H50C22.3858 297 0 274.614 0 247V50Z" fill="#CEEFFF"/>
<path d="M238.536 109V94.912H231.48V91.72H248.76V94.912H241.728V109H238.536ZM252.458 109C251.85 109 251.298 108.848 250.802 108.544C250.306 108.24 249.906 107.84 249.602 107.344C249.298 106.848 249.146 106.296 249.146 105.688V98.392C249.146 97.784 249.298 97.232 249.602 96.736C249.906 96.24 250.306 95.84 250.802 95.536C251.298 95.232 251.85 95.08 252.458 95.08H259.97C260.578 95.08 261.13 95.232 261.626 95.536C262.138 95.84 262.538 96.24 262.826 96.736C263.13 97.232 263.282 97.784 263.282 98.392V105.688C263.282 106.296 263.13 106.848 262.826 107.344C262.538 107.84 262.146 108.24 261.65 108.544C261.154 108.848 260.594 109 259.97 109H252.458ZM252.578 105.856H259.85C259.93 105.856 259.994 105.832 260.042 105.784C260.106 105.72 260.138 105.648 260.138 105.568V98.512C260.138 98.432 260.106 98.368 260.042 98.32C259.994 98.256 259.93 98.224 259.85 98.224H252.578C252.498 98.224 252.426 98.256 252.362 98.32C252.314 98.368 252.29 98.432 252.29 98.512V105.568C252.29 105.648 252.314 105.72 252.362 105.784C252.426 105.832 252.498 105.856 252.578 105.856ZM268.403 109C267.779 109 267.219 108.848 266.723 108.544C266.227 108.24 265.827 107.84 265.523 107.344C265.235 106.848 265.091 106.296 265.091 105.688V98.392C265.091 97.784 265.235 97.232 265.523 96.736C265.827 96.24 266.227 95.84 266.723 95.536C267.219 95.232 267.779 95.08 268.403 95.08H276.107V90.52H279.251V109H268.403ZM268.547 105.856H275.819C275.899 105.856 275.963 105.832 276.011 105.784C276.075 105.72 276.107 105.648 276.107 105.568V98.512C276.107 98.432 276.075 98.368 276.011 98.32C275.963 98.256 275.899 98.224 275.819 98.224H268.547C268.467 98.224 268.395 98.256 268.331 98.32C268.283 98.368 268.259 98.432 268.259 98.512V105.568C268.259 105.648 268.283 105.72 268.331 105.784C268.395 105.832 268.467 105.856 268.547 105.856ZM285.107 109C284.499 109 283.939 108.848 283.427 108.544C282.931 108.24 282.531 107.84 282.227 107.344C281.939 106.848 281.795 106.296 281.795 105.688V100.456H292.787V98.512C292.787 98.432 292.755 98.368 292.691 98.32C292.643 98.256 292.579 98.224 292.499 98.224H281.795V95.08H292.619C293.227 95.08 293.779 95.232 294.275 95.536C294.787 95.84 295.187 96.24 295.475 96.736C295.779 97.232 295.931 97.784 295.931 98.392V109H285.107ZM285.227 105.856H292.787V103.288H284.939V105.568C284.939 105.648 284.963 105.72 285.011 105.784C285.075 105.832 285.147 105.856 285.227 105.856ZM309.107 109C308.499 109 307.947 108.848 307.451 108.544C306.955 108.24 306.555 107.84 306.251 107.344C305.947 106.848 305.795 106.296 305.795 105.688V90.496H308.963V105.568C308.963 105.648 308.987 105.72 309.035 105.784C309.099 105.832 309.171 105.856 309.251 105.856H311.915V109H309.107ZM317.052 109C316.444 109 315.884 108.848 315.372 108.544C314.876 108.24 314.476 107.84 314.172 107.344C313.884 106.848 313.74 106.296 313.74 105.688V100.456H324.732V98.512C324.732 98.432 324.7 98.368 324.636 98.32C324.588 98.256 324.524 98.224 324.444 98.224H313.74V95.08H324.564C325.172 95.08 325.724 95.232 326.22 95.536C326.732 95.84 327.132 96.24 327.42 96.736C327.724 97.232 327.876 97.784 327.876 98.392V109H317.052ZM317.172 105.856H324.732V103.288H316.884V105.568C316.884 105.648 316.908 105.72 316.956 105.784C317.02 105.832 317.092 105.856 317.172 105.856ZM235.464 139C234.856 139 234.304 138.848 233.808 138.544C233.312 138.24 232.912 137.84 232.608 137.344C232.304 136.848 232.152 136.296 232.152 135.688V135.16H235.296V135.568C235.296 135.648 235.32 135.72 235.368 135.784C235.432 135.832 235.504 135.856 235.584 135.856H242.856C242.936 135.856 243 135.832 243.048 135.784C243.112 135.72 243.144 135.648 243.144 135.568V133.912C243.144 133.832 243.112 133.768 243.048 133.72C243 133.656 242.936 133.624 242.856 133.624H235.464C234.856 133.624 234.304 133.472 233.808 133.168C233.312 132.864 232.912 132.464 232.608 131.968C232.304 131.472 232.152 130.92 232.152 130.312V128.392C232.152 127.784 232.304 127.232 232.608 126.736C232.912 126.24 233.312 125.84 233.808 125.536C234.304 125.232 234.856 125.08 235.464 125.08H242.976C243.6 125.08 244.16 125.232 244.656 125.536C245.152 125.84 245.552 126.24 245.856 126.736C246.16 127.232 246.312 127.784 246.312 128.392V128.92H243.144V128.512C243.144 128.432 243.112 128.368 243.048 128.32C243 128.256 242.936 128.224 242.856 128.224H235.584C235.504 128.224 235.432 128.256 235.368 128.32C235.32 128.368 235.296 128.432 235.296 128.512V130.168C235.296 130.248 235.32 130.32 235.368 130.384C235.432 130.432 235.504 130.456 235.584 130.456H242.976C243.6 130.456 244.16 130.608 244.656 130.912C245.152 131.216 245.552 131.616 245.856 132.112C246.16 132.608 246.312 133.16 246.312 133.768V135.688C246.312 136.296 246.16 136.848 245.856 137.344C245.552 137.84 245.152 138.24 244.656 138.544C244.16 138.848 243.6 139 242.976 139H235.464ZM251.544 139C250.936 139 250.384 138.848 249.888 138.544C249.392 138.24 248.992 137.84 248.688 137.344C248.384 136.848 248.232 136.296 248.232 135.688V128.392C248.232 127.784 248.384 127.232 248.688 126.736C248.992 126.24 249.392 125.84 249.888 125.536C250.384 125.232 250.936 125.08 251.544 125.08H259.056C259.664 125.08 260.216 125.232 260.712 125.536C261.224 125.84 261.624 126.24 261.912 126.736C262.216 127.232 262.368 127.784 262.368 128.392V133.624H251.376V135.568C251.376 135.648 251.4 135.72 251.448 135.784C251.512 135.832 251.584 135.856 251.664 135.856H262.368V139H251.544ZM251.376 130.792H259.224V128.512C259.224 128.432 259.192 128.368 259.128 128.32C259.08 128.256 259.016 128.224 258.936 128.224H251.664C251.584 128.224 251.512 128.256 251.448 128.32C251.4 128.368 251.376 128.432 251.376 128.512V130.792ZM266.773 144.496V141.328H275.149C275.229 141.328 275.293 141.296 275.341 141.232C275.405 141.184 275.437 141.12 275.437 141.04V139H267.757C267.165 139 266.613 138.848 266.101 138.544C265.605 138.24 265.205 137.84 264.901 137.344C264.597 136.848 264.445 136.296 264.445 135.688V128.392C264.445 127.784 264.597 127.232 264.901 126.736C265.205 126.24 265.605 125.84 266.101 125.536C266.613 125.232 267.165 125.08 267.757 125.08H275.293C275.901 125.08 276.453 125.232 276.949 125.536C277.445 125.84 277.837 126.24 278.125 126.736C278.429 127.232 278.581 127.784 278.581 128.392V141.184C278.581 141.808 278.437 142.368 278.149 142.864C277.861 143.36 277.461 143.752 276.949 144.04C276.453 144.344 275.901 144.496 275.293 144.496H266.773ZM267.877 135.856H275.149C275.229 135.856 275.293 135.832 275.341 135.784C275.405 135.72 275.437 135.648 275.437 135.568V128.512C275.437 128.432 275.405 128.368 275.341 128.32C275.293 128.256 275.229 128.224 275.149 128.224H267.877C267.797 128.224 267.725 128.256 267.661 128.32C267.613 128.368 267.589 128.432 267.589 128.512V135.568C267.589 135.648 267.613 135.72 267.661 135.784C267.725 135.832 267.797 135.856 267.877 135.856ZM283.818 139C283.21 139 282.65 138.848 282.138 138.544C281.642 138.24 281.242 137.84 280.938 137.344C280.65 136.848 280.506 136.296 280.506 135.688V125.08H283.65V135.568C283.65 135.648 283.674 135.72 283.722 135.784C283.786 135.832 283.858 135.856 283.938 135.856H291.21C291.29 135.856 291.354 135.832 291.402 135.784C291.466 135.72 291.498 135.648 291.498 135.568V125.08H294.642V135.688C294.642 136.296 294.49 136.848 294.186 137.344C293.898 137.84 293.506 138.24 293.01 138.544C292.514 138.848 291.954 139 291.33 139H283.818ZM297.17 139V128.392C297.17 127.784 297.322 127.232 297.626 126.736C297.93 126.24 298.33 125.84 298.826 125.536C299.338 125.232 299.89 125.08 300.482 125.08H308.21V128.224H300.602C300.522 128.224 300.45 128.256 300.386 128.32C300.338 128.368 300.314 128.432 300.314 128.512V139H297.17ZM310.037 139V125.08H313.181V139H310.037ZM310.037 123.688V120.52H313.181V123.688H310.037ZM318.302 139C317.678 139 317.118 138.848 316.622 138.544C316.126 138.24 315.726 137.84 315.422 137.344C315.134 136.848 314.99 136.296 314.99 135.688V128.392C314.99 127.784 315.134 127.232 315.422 126.736C315.726 126.24 316.126 125.84 316.622 125.536C317.118 125.232 317.678 125.08 318.302 125.08H326.006V120.52H329.15V139H318.302ZM318.446 135.856H325.718C325.798 135.856 325.862 135.832 325.91 135.784C325.974 135.72 326.006 135.648 326.006 135.568V128.512C326.006 128.432 325.974 128.368 325.91 128.32C325.862 128.256 325.798 128.224 325.718 128.224H318.446C318.366 128.224 318.294 128.256 318.23 128.32C318.182 128.368 318.158 128.432 318.158 128.512V135.568C318.158 135.648 318.182 135.72 318.23 135.784C318.294 135.832 318.366 135.856 318.446 135.856ZM335.005 139C334.397 139 333.837 138.848 333.325 138.544C332.829 138.24 332.429 137.84 332.125 137.344C331.837 136.848 331.693 136.296 331.693 135.688V130.456H342.685V128.512C342.685 128.432 342.653 128.368 342.589 128.32C342.541 128.256 342.477 128.224 342.397 128.224H331.693V125.08H342.517C343.125 125.08 343.677 125.232 344.173 125.536C344.685 125.84 345.085 126.24 345.373 126.736C345.677 127.232 345.829 127.784 345.829 128.392V139H335.005ZM335.125 135.856H342.685V133.288H334.837V135.568C334.837 135.648 334.861 135.72 334.909 135.784C334.973 135.832 335.045 135.856 335.125 135.856ZM350.973 139C350.349 139 349.789 138.848 349.293 138.544C348.797 138.24 348.397 137.84 348.093 137.344C347.805 136.848 347.661 136.296 347.661 135.688V128.392C347.661 127.784 347.805 127.232 348.093 126.736C348.397 126.24 348.797 125.84 349.293 125.536C349.789 125.232 350.349 125.08 350.973 125.08H358.677V120.52H361.821V139H350.973ZM351.117 135.856H358.389C358.469 135.856 358.533 135.832 358.581 135.784C358.645 135.72 358.677 135.648 358.677 135.568V128.512C358.677 128.432 358.645 128.368 358.581 128.32C358.533 128.256 358.469 128.224 358.389 128.224H351.117C351.037 128.224 350.965 128.256 350.901 128.32C350.853 128.368 350.829 128.432 350.829 128.512V135.568C350.829 135.648 350.853 135.72 350.901 135.784C350.965 135.832 351.037 135.856 351.117 135.856ZM235.536 169C234.928 169 234.376 168.848 233.88 168.544C233.384 168.24 232.984 167.84 232.68 167.344C232.376 166.848 232.224 166.296 232.224 165.688V158.392C232.224 157.784 232.376 157.232 232.68 156.736C232.984 156.24 233.384 155.84 233.88 155.536C234.376 155.232 234.928 155.08 235.536 155.08H246.336V158.224H235.656C235.576 158.224 235.504 158.256 235.44 158.32C235.392 158.368 235.368 158.432 235.368 158.512V165.568C235.368 165.648 235.392 165.72 235.44 165.784C235.504 165.832 235.576 165.856 235.656 165.856H246.36V169H235.536ZM252.059 169C251.451 169 250.899 168.848 250.403 168.544C249.907 168.24 249.507 167.84 249.203 167.344C248.899 166.848 248.747 166.296 248.747 165.688V158.392C248.747 157.784 248.899 157.232 249.203 156.736C249.507 156.24 249.907 155.84 250.403 155.536C250.899 155.232 251.451 155.08 252.059 155.08H259.571C260.179 155.08 260.731 155.232 261.227 155.536C261.739 155.84 262.139 156.24 262.427 156.736C262.731 157.232 262.883 157.784 262.883 158.392V165.688C262.883 166.296 262.731 166.848 262.427 167.344C262.139 167.84 261.747 168.24 261.251 168.544C260.755 168.848 260.195 169 259.571 169H252.059ZM252.179 165.856H259.451C259.531 165.856 259.595 165.832 259.643 165.784C259.707 165.72 259.739 165.648 259.739 165.568V158.512C259.739 158.432 259.707 158.368 259.643 158.32C259.595 158.256 259.531 158.224 259.451 158.224H252.179C252.099 158.224 252.027 158.256 251.963 158.32C251.915 158.368 251.891 158.432 251.891 158.512V165.568C251.891 165.648 251.915 165.72 251.963 165.784C252.027 165.832 252.099 165.856 252.179 165.856ZM264.851 169V155.08H275.675C276.283 155.08 276.835 155.232 277.331 155.536C277.843 155.84 278.243 156.24 278.531 156.736C278.835 157.232 278.987 157.784 278.987 158.392V169H275.843V158.512C275.843 158.432 275.811 158.368 275.747 158.32C275.699 158.256 275.635 158.224 275.555 158.224H268.283C268.203 158.224 268.131 158.256 268.067 158.32C268.019 158.368 267.995 158.432 267.995 158.512V169H264.851ZM232.392 199V181.72H248.304V184.912H235.584V188.752H245.808V191.968H235.584V199H232.392ZM249.592 199V185.08H252.736V199H249.592ZM249.592 183.688V180.52H252.736V183.688H249.592ZM258.716 199C258.108 199 257.556 198.848 257.06 198.544C256.564 198.24 256.164 197.84 255.86 197.344C255.556 196.848 255.404 196.296 255.404 195.688V180.496H258.572V195.568C258.572 195.648 258.596 195.72 258.644 195.784C258.708 195.832 258.78 195.856 258.86 195.856H261.524V199H258.716ZM266.591 199C265.983 199 265.431 198.848 264.935 198.544C264.439 198.24 264.039 197.84 263.735 197.344C263.431 196.848 263.279 196.296 263.279 195.688V188.392C263.279 187.784 263.431 187.232 263.735 186.736C264.039 186.24 264.439 185.84 264.935 185.536C265.431 185.232 265.983 185.08 266.591 185.08H274.103C274.711 185.08 275.263 185.232 275.759 185.536C276.271 185.84 276.671 186.24 276.959 186.736C277.263 187.232 277.415 187.784 277.415 188.392V193.624H266.423V195.568C266.423 195.648 266.447 195.72 266.495 195.784C266.559 195.832 266.631 195.856 266.711 195.856H277.415V199H266.591ZM266.423 190.792H274.271V188.512C274.271 188.432 274.239 188.368 274.175 188.32C274.127 188.256 274.063 188.224 273.983 188.224H266.711C266.631 188.224 266.559 188.256 266.495 188.32C266.447 188.368 266.423 188.432 266.423 188.512V190.792ZM283.28 199C282.672 199 282.112 198.848 281.6 198.544C281.104 198.24 280.704 197.84 280.4 197.344C280.096 196.832 279.944 196.272 279.944 195.664V194.344H283.112V195.52C283.112 195.6 283.136 195.672 283.184 195.736C283.248 195.784 283.32 195.808 283.4 195.808H293.744C293.824 195.808 293.888 195.784 293.936 195.736C294 195.672 294.032 195.6 294.032 195.52V192.232C294.032 192.152 294 192.088 293.936 192.04C293.888 191.992 293.824 191.968 293.744 191.968H283.28C282.672 191.968 282.112 191.816 281.6 191.512C281.104 191.208 280.704 190.808 280.4 190.312C280.096 189.8 279.944 189.232 279.944 188.608V185.056C279.944 184.448 280.096 183.896 280.4 183.4C280.704 182.888 281.104 182.48 281.6 182.176C282.112 181.872 282.672 181.72 283.28 181.72H293.888C294.496 181.72 295.048 181.872 295.544 182.176C296.056 182.48 296.464 182.888 296.768 183.4C297.072 183.896 297.224 184.448 297.224 185.056V186.376H294.032V185.2C294.032 185.12 294 185.056 293.936 185.008C293.888 184.944 293.824 184.912 293.744 184.912H283.4C283.32 184.912 283.248 184.944 283.184 185.008C283.136 185.056 283.112 185.12 283.112 185.2V188.488C283.112 188.568 283.136 188.632 283.184 188.68C283.248 188.728 283.32 188.752 283.4 188.752H293.888C294.496 188.752 295.048 188.904 295.544 189.208C296.056 189.512 296.464 189.92 296.768 190.432C297.072 190.928 297.224 191.488 297.224 192.112V195.664C297.224 196.272 297.072 196.832 296.768 197.344C296.464 197.84 296.056 198.24 295.544 198.544C295.048 198.848 294.496 199 293.888 199H283.28ZM299.796 199V180.52H302.94V185.08H310.62C311.228 185.08 311.78 185.232 312.276 185.536C312.772 185.84 313.172 186.24 313.476 186.736C313.78 187.232 313.932 187.784 313.932 188.392V199H310.788V188.512C310.788 188.432 310.756 188.368 310.692 188.32C310.644 188.256 310.58 188.224 310.5 188.224H303.228C303.148 188.224 303.076 188.256 303.012 188.32C302.964 188.368 302.94 188.432 302.94 188.512V199H299.796ZM315.803 199V185.08H318.947V199H315.803ZM315.803 183.688V180.52H318.947V183.688H315.803ZM324.575 199C323.967 199 323.415 198.848 322.919 198.544C322.423 198.24 322.023 197.84 321.719 197.344C321.415 196.848 321.263 196.296 321.263 195.688V188.392C321.263 187.784 321.415 187.232 321.719 186.736C322.023 186.24 322.423 185.84 322.919 185.536C323.415 185.232 323.967 185.08 324.575 185.08H332.087C332.695 185.08 333.247 185.232 333.743 185.536C334.255 185.84 334.655 186.24 334.943 186.736C335.247 187.232 335.399 187.784 335.399 188.392V193.624H324.407V195.568C324.407 195.648 324.431 195.72 324.479 195.784C324.543 195.832 324.615 195.856 324.695 195.856H335.399V199H324.575ZM324.407 190.792H332.255V188.512C332.255 188.432 332.223 188.368 332.159 188.32C332.111 188.256 332.047 188.224 331.967 188.224H324.695C324.615 188.224 324.543 188.256 324.479 188.32C324.431 188.368 324.407 188.432 324.407 188.512V190.792ZM340.654 199C340.046 199 339.494 198.848 338.998 198.544C338.502 198.24 338.102 197.84 337.798 197.344C337.494 196.848 337.342 196.296 337.342 195.688V180.496H340.51V195.568C340.51 195.648 340.534 195.72 340.582 195.784C340.646 195.832 340.718 195.856 340.798 195.856H343.462V199H340.654ZM348.325 199C347.701 199 347.141 198.848 346.645 198.544C346.149 198.24 345.749 197.84 345.445 197.344C345.157 196.848 345.013 196.296 345.013 195.688V188.392C345.013 187.784 345.157 187.232 345.445 186.736C345.749 186.24 346.149 185.84 346.645 185.536C347.141 185.232 347.701 185.08 348.325 185.08H356.029V180.52H359.173V199H348.325ZM348.469 195.856H355.741C355.821 195.856 355.885 195.832 355.933 195.784C355.997 195.72 356.029 195.648 356.029 195.568V188.512C356.029 188.432 355.997 188.368 355.933 188.32C355.885 188.256 355.821 188.224 355.741 188.224H348.469C348.389 188.224 348.317 188.256 348.253 188.32C348.205 188.368 348.181 188.432 348.181 188.512V195.568C348.181 195.648 348.205 195.72 348.253 195.784C348.317 195.832 348.389 195.856 348.469 195.856Z" fill="#040446"/>
<path d="M156.392 74.4405C156.982 83.3591 147.849 78.3446 138.568 78.3446C129.286 78.3446 120.173 83.9859 121.762 74.4405C123.799 67.6757 129.286 67.0607 138.568 67.0607C147.849 67.0607 153.845 65.8308 156.392 74.4405Z" fill="white"/>
<path d="M139.225 74.4352C171.077 74.4352 188.497 92.8539 188.497 116.187C190.287 128.029 185.933 140.319 173.934 148.479C178.041 149.61 177.983 154.941 177.049 166.435C177.049 182.451 157.142 207.935 139.723 206.935C116.829 208.435 100.903 176.951 100.903 160.935C100.903 154.449 101.392 150.345 104.323 148.722C92.8922 141.602 89.7546 130.748 89.9536 116.187C90.3409 87.8585 113.345 74.4352 139.225 74.4352Z" fill="white"/>
<path d="M181.529 114.435C183.52 126.935 181.529 148.435 139.225 138.935C95.4284 149.435 94.3666 125.435 96.9214 114.435C100.405 99.4352 115.861 90.4352 139.225 90.4352C162.589 90.4352 177.05 99.4352 181.529 114.435Z" fill="#010173"/>
<path d="M105.496 149.655C98.6581 139.355 91.0312 134.467 86.044 137.809C81.0568 141.15 82.5568 152.209 89.3944 162.509C103.551 183.835 104.162 178.102 106.78 175.896C101.778 167.236 104.566 154.051 105.496 149.655Z" fill="white"/>
<path d="M105.496 149.655C98.6581 139.355 91.0312 134.467 86.044 137.809C81.0568 141.15 82.5568 152.209 89.3944 162.509C103.551 183.835 104.162 178.102 106.78 175.896C101.778 167.236 104.566 154.051 105.496 149.655Z" fill="white"/>
<path d="M176.93 151.221C187.942 146.883 205.758 144.138 208.251 150.527C210.744 156.916 203.838 165.611 192.825 169.949C170.025 178.93 168.974 175.836 171.719 171.503C173.613 167.425 179.037 160.928 176.93 151.221Z" fill="white"/>
<path d="M176.93 151.221C187.942 146.883 205.758 144.138 208.251 150.527C210.744 156.916 203.838 165.611 192.825 169.949C170.025 178.93 168.974 175.836 171.719 171.503C173.613 167.425 179.037 160.928 176.93 151.221Z" fill="white"/>
<path d="M90.4515 119.435C90.4515 137.546 100.405 140.435 87.963 138.435C80 135.435 80 130.376 80 120.435C80 110.494 80 103.935 87.963 103.435C96.4238 103.435 90.4515 112.935 90.4515 119.435Z" fill="white"/>
<path d="M82.4527 125.935L83.7381 126.935L85.2381 128.435L86.2381 128.935L87.7381 129.435H89.9527L90.3066 130.435L90.4527 131.435L90.9527 132.435V132.935L91.4527 133.935L91.7381 135.25L92.4527 136.935H91.4527L90.3066 136.729L88.9527 136.435L87.7381 135.935L86.7381 135.435L85.7381 134.795L84.7381 133.935L83.9527 132.935L83.4527 131.935L82.9527 130.435L82.7381 129.435V128.208L82.4527 126.935V125.935Z" fill="#A9A8D0"/>
<path d="M188.285 119.435C188.285 137.546 175.557 141.935 190.773 138.435C198.736 135.435 198.736 130.376 198.736 120.435C198.736 110.494 198.736 103.935 190.773 103.435C182.312 103.435 188.285 112.935 188.285 119.435Z" fill="white"/>
<path d="M197.747 128.428L196.3 129.176L194.551 130.377L193.477 130.685L191.911 130.903L189.734 130.498L189.203 131.416L188.876 132.373L188.202 133.264L188.11 133.756L187.436 134.648L186.915 135.888L185.904 137.414L186.887 137.597L188.052 137.604L189.437 137.563L190.722 137.293L191.797 136.984L192.897 136.538L194.037 135.875L194.992 135.036L195.667 134.144L196.433 132.761L196.826 131.817L197.051 130.611L197.564 129.411L197.747 128.428Z" fill="#A9A8D0"/>
<path d="M184.017 81.9352L185.013 80.9352L187.003 80.4352L188.994 80.9352L190.985 83.4352L192.478 86.9352L192.976 89.9352L194.469 104.435L190.985 103.435L188.497 103.935L187.003 104.935L186.008 101.935L183.52 96.4352V88.9352L184.017 81.9352Z" fill="#00CCF9"/>
<path d="M94.433 81.9352L93.4376 80.9352L91.4469 80.4352H89.9538L87.4654 82.9352L85.9723 84.9352L85.4746 87.4352L84.9769 91.4352L84.4792 98.4352L83.9815 104.435L87.4654 103.435L89.9538 103.935L91.4469 104.935L92.4423 101.935L94.9307 96.4352V88.9352L94.433 81.9352Z" fill="#1BC4F5"/>
<path d="M139.044 201.21C172.944 199.207 172.748 151.928 175.739 155.928C180.224 174.427 161.462 206.501 139.043 205.71C116.625 204.919 102.706 177.08 103.453 155.935C106.444 149.435 101.655 193.714 139.044 201.21Z" fill="#A9A8D0"/>
<path d="M140.276 94.3298C101.787 94.3979 98.9527 118.935 98.9527 119.935C97.9527 106.935 114.691 91.0438 140.187 92.0642C165.683 93.0846 180.953 104.935 180.953 119.935C177.453 118.435 182.92 99.1414 140.276 94.3298Z" fill="#A9A8D0"/>
<path d="M118.002 169.655C118.206 167.603 119.259 165.729 120.907 164.488C121.825 163.796 122.893 163.328 124.024 163.121L126.264 162.712C127.271 162.528 128.294 162.435 129.318 162.435H148.291C149.214 162.435 150.134 162.506 151.046 162.647L153.928 163.092C155.378 163.316 156.736 163.943 157.848 164.9L158.171 165.178C159.123 165.998 159.814 167.079 160.158 168.288C160.464 169.367 160.483 170.508 160.212 171.597L159.263 175.414C158.846 177.088 158.226 178.706 157.417 180.23L156.712 181.558C155.35 184.123 153.552 186.431 151.397 188.379L150.746 188.968C150.034 189.612 149.27 190.195 148.462 190.712C145.68 192.49 142.448 193.435 139.146 193.435H138.868C135.836 193.435 132.833 192.669 130.166 191.227C128.59 190.374 127.136 189.29 125.872 188.02L125.213 187.358C123.941 186.08 122.812 184.667 121.847 183.143L120.857 181.58C120.164 180.486 119.587 179.324 119.135 178.111C118.595 176.666 118.236 175.16 118.067 173.626L117.931 172.401C117.86 171.759 117.857 171.111 117.921 170.468L118.002 169.655Z" fill="#01D1FF"/>
<path d="M138.936 186.435C156.494 185.634 157.893 167.887 159.453 169.671C159.453 178.25 150.553 192.282 138.936 191.872C127.318 191.462 120.035 179.061 120.366 169.671C121.899 166.792 119.545 183.008 138.936 186.435Z" fill="#0384CF"/>
<path d="M172.57 118.435C172.57 126.719 165.886 133.435 157.64 133.435C149.394 133.435 142.709 126.719 142.709 118.435C142.709 110.151 149.394 103.435 157.64 103.435C165.886 103.435 172.57 110.151 172.57 118.435Z" fill="#0237A1"/>
<path d="M166.598 121.435C166.598 123.572 163.655 123.513 159.351 120.277C158.066 119.311 156.262 119.359 155.019 120.377C150.016 124.475 147.686 122.76 147.686 121.435C147.686 118.95 152.194 114.435 157.142 114.435C162.09 114.435 166.598 118.95 166.598 121.435Z" fill="#02E4FC"/>
<path d="M167.594 118.435C167.594 123.958 163.137 128.435 157.64 128.435C152.142 128.435 147.686 123.958 147.686 118.435C147.686 112.912 152.142 108.435 157.64 108.435C163.137 108.435 167.594 112.912 167.594 118.435Z" fill="#0588CE" fill-opacity="0.53"/>
<path d="M135.741 118.435C135.741 126.719 129.057 133.435 120.811 133.435C112.565 133.435 105.88 126.719 105.88 118.435C105.88 110.151 112.565 103.435 120.811 103.435C129.057 103.435 135.741 110.151 135.741 118.435Z" fill="#0237A1"/>
<path d="M130.764 118.435C130.764 123.958 126.308 128.435 120.811 128.435C115.313 128.435 110.857 123.958 110.857 118.435C110.857 112.912 115.313 108.435 120.811 108.435C126.308 108.435 130.764 112.912 130.764 118.435Z" fill="#0588CE" fill-opacity="0.53"/>
<path d="M130.267 121.435C130.267 123.572 127.324 123.513 123.019 120.277C121.735 119.311 119.931 119.359 118.688 120.377C113.685 124.475 111.354 122.76 111.354 121.435C111.354 118.95 115.863 114.435 120.811 114.435C125.758 114.435 130.267 118.95 130.267 121.435Z" fill="#02E4FC"/>
<path d="M169.453 226.435C169.453 229.197 156.021 231.435 139.453 231.435C122.884 231.435 109.453 229.197 109.453 226.435C109.453 223.674 122.884 221.435 139.453 221.435C156.021 221.435 169.453 223.674 169.453 226.435Z" fill="#A2BFE1"/>
<path d="M103.649 155.812L102.454 158.249L102.131 165.042L103.289 172.384L106.5 178.618L103.458 176.817L101.585 175.954L100.103 175.405L99.0151 171.968L98.4679 169.605L97.9331 165.328L97.9385 162.127L98.0977 160.331L98.6468 158.848L99.0347 158.024L100.265 156.492L100.838 156.119L101.854 155.652L102.557 155.575L103.649 155.812Z" fill="#A9A8D0"/>
<path d="M188.652 82.6936L188.652 86.2419L188.495 90.24L188.428 94.7395L188.652 97.2104L189.073 97.7104L190.573 99.2104H192.073L193.073 100.21L193.33 101.71L192.073 101.46L190.727 101.71L189.073 101.935L188.953 101.435L188.428 100.435L187.953 99.4351L187.453 98.4351L187.24 97.7104L186.953 97.4352L186.484 96.4352V95.2104L186.453 93.9351L186.453 88.4351L186.577 86.9351V85.4351L186.852 83.9351L186.852 82.9352L187.121 82.6936L187.953 82.4352L188.652 82.6936Z" fill="#0487CB"/>
<path d="M198.049 165.251L186.671 166.552L185.274 166.431L182.217 164.953L181.066 163.841L179.41 161.79L178.921 162.803L177.926 165.516L177.491 166.416L176.238 168.35L175.081 170.249L174.428 171.6L173.6 173.004L176.011 172.92L178.289 172.495L180.293 171.798L181.493 171.612L182.922 171.264L185.593 170.334L186.753 169.924L189.6 168.94L193.607 167.546L196.496 166.166L198.049 165.251Z" fill="#A9A8D0"/>
<path d="M91.3744 82.4078L91.3743 86.4666L91.5307 90.4648L91.5978 94.9642L91.3743 97.4352L90.9527 97.9352L89.4527 99.4352H87.9527L86.9527 100.435L86.7066 101.685L87.9527 101.435L89.3534 101.685L90.9527 101.935V101.435L91.5307 100.442L91.9527 99.4352L92.4527 98.4352L92.6332 97.7025L92.9527 96.9352L93.5422 95.9352L93.5422 95.4352L93.4934 94.4359L93.4487 91.4363V88.4352L93.2963 86.4666L93.1734 84.4079L93.1735 82.7253L91.9525 82.4353L91.3744 82.4078Z" fill="#0487CB"/>
</svg>
