<svg width="22" height="24" viewBox="0 0 22 24" fill="none" xmlns="http://www.w3.org/2000/svg">
<rect x="2.91304" y="9.43243" width="15.6957" height="13.5676" rx="4" stroke="#F32020" stroke-width="2"/>
<path d="M9.08696 16.9336C9.08696 16.5374 9.40815 16.2162 9.80435 16.2162C10.2006 16.2162 10.5217 16.5374 10.5217 16.9336V18.8155C10.5217 18.8661 10.5298 18.9164 10.5455 18.9645C10.6894 19.4036 11.3106 19.4036 11.4545 18.9645C11.4702 18.9164 11.4783 18.8661 11.4783 18.8155V16.9336C11.4783 16.5374 11.7995 16.2162 12.1957 16.2162C12.5919 16.2162 12.913 16.5374 12.913 16.9336V16.9459V19.168C12.913 20.2246 12.0565 21.0811 11 21.0811C9.94346 21.0811 9.08696 20.2246 9.08696 19.168V16.9459V16.9336Z" fill="#F32020"/>
<mask id="path-3-inside-1_10_40" fill="white">
<path d="M13.3912 15.4865C12.7674 18.1622 12.2741 14.2703 10.896 14.2703C9.51793 14.2703 8.81664 18.8919 8.6087 15.4865C8.6087 14.0088 9.51784 12.8108 10.8959 12.8108C12.274 12.8108 13.3912 14.0088 13.3912 15.4865Z"/>
</mask>
<path d="M13.3912 15.4865L15.339 15.9406L15.3912 15.7166V15.4865H13.3912ZM8.6087 15.4865H6.6087V15.5475L6.61241 15.6084L8.6087 15.4865ZM11.4434 15.0324C11.3758 15.3227 11.3428 15.3666 11.3776 15.298C11.396 15.2617 11.4808 15.0976 11.6692 14.9185C11.878 14.7199 12.2548 14.4695 12.7857 14.4306C13.3 14.3929 13.6854 14.5744 13.8864 14.7021C14.0768 14.8231 14.183 14.9451 14.2086 14.975C14.2544 15.0283 14.2457 15.0307 14.1528 14.8718C14.0392 14.6777 13.7164 14.0719 13.3618 13.6132C13.0414 13.1988 12.2314 12.2703 10.896 12.2703V16.2703C10.2497 16.2703 10.0182 15.8282 10.1974 16.0599C10.3423 16.2474 10.4402 16.4473 10.7002 16.8917C10.794 17.0521 10.9603 17.3319 11.1733 17.5801C11.2805 17.705 11.9447 18.503 13.0782 18.4199C14.2999 18.3303 14.827 17.34 14.9452 17.1069C15.1318 16.739 15.2507 16.3192 15.339 15.9406L11.4434 15.0324ZM10.896 12.2703C10.1352 12.2703 9.54843 12.5944 9.17043 12.8932C8.80103 13.1851 8.52921 13.5302 8.34143 13.8018C7.98118 14.3228 7.67446 14.9682 7.53328 15.244C7.43185 15.4422 7.4119 15.4649 7.43896 15.4274C7.44466 15.4195 7.56375 15.2462 7.80208 15.0783C8.06242 14.8949 8.74927 14.542 9.589 14.8707C10.279 15.1408 10.5401 15.6853 10.5851 15.78C10.6584 15.9341 10.6747 16.0354 10.6677 16.0022C10.6567 15.9497 10.6296 15.7675 10.605 15.3646L6.61241 15.6084C6.6398 16.0568 6.68003 16.4751 6.75259 16.8217C6.7874 16.9881 6.84946 17.2385 6.9727 17.4977C7.06764 17.6973 7.38277 18.3026 8.13104 18.5955C9.02903 18.947 9.77835 18.5789 10.1055 18.3485C10.4106 18.1336 10.6007 17.8814 10.6819 17.769C10.8599 17.5225 11.0085 17.2335 11.0938 17.0668C11.3262 16.6129 11.4662 16.3158 11.6315 16.0766C11.7066 15.9682 11.7173 15.9787 11.6508 16.0313C11.5757 16.0906 11.3123 16.2703 10.896 16.2703V12.2703ZM10.6087 15.4865C10.6087 15.1448 10.7145 14.9446 10.7781 14.8674C10.8075 14.8319 10.8265 14.8223 10.8303 14.8204C10.8316 14.8198 10.8476 14.8108 10.8959 14.8108V10.8108C8.07085 10.8108 6.6087 13.281 6.6087 15.4865H10.6087ZM10.8959 14.8108C10.9856 14.8108 11.0928 14.8461 11.1977 14.9586C11.3048 15.0734 11.3912 15.2552 11.3912 15.4865H15.3912C15.3912 13.038 13.5078 10.8108 10.8959 10.8108V14.8108Z" fill="#F32020" mask="url(#path-3-inside-1_10_40)"/>
<path d="M12.0522 14.7568L13.3913 15.2875L13.2 16.0836L13.0087 16.6143L12.6261 17.4103L11.4783 17.6757V16.6143L11.6696 16.3489L11.8609 16.0836L12.0522 15.8182V15.5528V14.7568Z" fill="#F32020"/>
<path d="M9.85635 15L8.60872 15.4865V16.2162L8.81666 16.7027L9.02459 17.1892L9.23253 17.4324L10.4802 17.6757V16.9459V16.7027L10.2722 16.4595L10.0643 16.2162L9.85635 15.973V15Z" fill="#F32020"/>
<path d="M6 5C6 2.51472 8.01472 0.5 10.5 0.5C12.9853 0.5 15 2.51472 15 5V8.26393C15 9.31916 13.5775 9.65497 13.1056 8.71115C13.0361 8.57229 13 8.41918 13 8.26393V4.93077C13 4.48504 12.8808 4.04741 12.6548 3.66322C11.6882 2.01995 9.31179 2.01995 8.34516 3.66322C8.11917 4.04741 8 4.48504 8 4.93077V8.08579C8 8.351 7.89464 8.60536 7.70711 8.79289L7.41421 9.08579C6.89233 9.60767 6 9.23805 6 8.5V5Z" fill="#F32020"/>
</svg>
