<svg width="19" height="15" viewBox="0 0 19 15" fill="none" xmlns="http://www.w3.org/2000/svg">
<rect x="0.5" y="0.5" width="18" height="14" stroke="#1E1A26"/>
<path d="M2.72375 0.5H7.35265C7.54703 0.500208 7.70422 0.658113 7.70422 0.852539C7.70407 1.04684 7.54694 1.20389 7.35265 1.2041H2.72375C2.52928 1.2041 2.37135 1.04697 2.37121 0.852539C2.37121 0.657984 2.52919 0.5 2.72375 0.5Z" stroke="white"/>
<path d="M2.31667 2H13.3167C13.869 2 14.3167 2.44772 14.3167 3V4.8457H5.01295C4.96557 4.8457 4.91826 4.84265 4.87135 4.83594L4.64674 4.80371C3.11357 4.5836 1.69251 5.56347 1.31667 7.01953V3C1.31667 2.44772 1.76438 2 2.31667 2Z" stroke="white" stroke-width="2"/>
<path d="M3.75293 6H16.3369C17.0029 6 17.4832 6.63874 17.2979 7.27832L16.6562 9.4873L15.2871 13.335C15.1453 13.7335 14.7677 14 14.3447 14H2.47168C1.8355 13.9998 1.36133 13.4132 1.49414 12.791L2.77441 6.79102C2.87297 6.32966 3.28115 6 3.75293 6Z" stroke="white" stroke-width="2"/>
</svg>
