<svg width="32" height="40" viewBox="0 0 32 40" fill="none" xmlns="http://www.w3.org/2000/svg">
<rect x="7" y="1" width="24" height="38" rx="4" stroke="white" stroke-width="2"/>
<line x1="7" y1="28" x2="7" y2="12" stroke="#2C263A" stroke-width="2"/>
<path d="M17.7071 20.7071C18.0976 20.3166 18.0976 19.6834 17.7071 19.2929L11.3431 12.9289C10.9526 12.5384 10.3195 12.5384 9.92893 12.9289C9.53841 13.3195 9.53841 13.9526 9.92893 14.3431L15.5858 20L9.92893 25.6569C9.53841 26.0474 9.53841 26.6805 9.92893 27.0711C10.3195 27.4616 10.9526 27.4616 11.3431 27.0711L17.7071 20.7071ZM0 21L17 21V19L0 19L0 21Z" fill="white"/>
</svg>
