<svg width="23" height="24" viewBox="0 0 23 24" fill="none" xmlns="http://www.w3.org/2000/svg">
<path d="M2.5 0.5H20.5C21.6046 0.5 22.5 1.39543 22.5 2.5V15.5C22.5 16.6046 21.6046 17.5 20.5 17.5H2.5C1.39543 17.5 0.5 16.6046 0.5 15.5V2.5C0.5 1.39543 1.39543 0.5 2.5 0.5Z" stroke="white"/>
<line y1="13.5" x2="22" y2="13.5" stroke="white"/>
<circle cx="9.5" cy="10.5" r="0.5" fill="white"/>
<path d="M3 5H8" stroke="white" stroke-linecap="round"/>
<path d="M3 7H7" stroke="white" stroke-linecap="round"/>
<path d="M3 10H7" stroke="white" stroke-linecap="round"/>
<circle cx="14" cy="5" r="4.5" stroke="white"/>
<circle cx="14" cy="5" r="4.5" stroke="white"/>
<circle cx="14" cy="5" r="2.5" stroke="white"/>
<circle cx="14" cy="5" r="2.5" stroke="white"/>
<rect x="9.5" y="18.5" width="5" height="2" stroke="white"/>
<path d="M21.5755 11.255C21.9659 11.6554 21.9519 12.2985 21.5445 12.6814C21.139 13.0622 20.5 13.0387 20.1237 12.6291L17.0234 9.25353C16.8219 9.03426 16.8645 8.68672 17.1133 8.52334C17.2732 8.41856 17.4116 8.28363 17.5203 8.12644L17.5319 8.11022C17.7419 7.80645 18.1773 7.76927 18.4352 8.03359L21.5755 11.255Z" stroke="white"/>
<path d="M9.7207 21.5H14.6025C14.8453 21.5001 15.0849 21.559 15.2998 21.6719L15.5234 21.79C15.6682 21.8661 15.8003 21.9646 15.9131 22.083L15.9414 22.1133C16.0508 22.2281 16.1418 22.3598 16.21 22.5029L16.3545 22.8066C16.4504 23.0081 16.5 23.229 16.5 23.4521V23.5H7.5V23.4521C7.5 23.229 7.54958 23.0081 7.64551 22.8066L7.80957 22.4629C7.86516 22.3463 7.93922 22.2391 8.02832 22.1455C8.16194 22.0053 8.32695 21.8989 8.50977 21.835L8.83203 21.7217L9.22559 21.584C9.38471 21.5283 9.55212 21.5 9.7207 21.5Z" stroke="white"/>
</svg>
